<?xml version="1.0" encoding="UTF-8"?>
<!DOCTYPE svg PUBLIC "-//W3C//DTD SVG 1.1//EN" "http://www.w3.org/Graphics/SVG/1.1/DTD/svg11.dtd">
<!-- Creator: CorelDRAW 2020 (64 Bit) -->
<svg xmlns="http://www.w3.org/2000/svg" xml:space="preserve" width="10mm" height="10mm" version="1.1" style="shape-rendering:geometricPrecision; text-rendering:geometricPrecision; image-rendering:optimizeQuality; fill-rule:evenodd; clip-rule:evenodd"
viewBox="0 0 1000 1000"
 xmlns:xlink="http://www.w3.org/1999/xlink"
 xmlns:xodm="http://www.corel.com/coreldraw/odm/2003"
 enable-background="new 0 0 274 311">
 <defs>
  <style type="text/css">
   <![CDATA[
    .fil0 {fill:#FEFEFE;fill-rule:nonzero}
   ]]>
  </style>
 </defs>
 <g id="Camada_x0020_1">
  <metadata id="CorelCorpID_0Corel-Layer"/>
  <g id="_1537543556784">
   <g>
    <path class="fil0" d="M185.7 373.88l-25.2 -173.46 204.04 -5.38c0,-98.35 -80.47,-178.83 -178.84,-178.83 -98.36,0 -178.83,80.48 -178.83,178.83 0,98.36 80.47,178.84 178.83,178.84l0 0zm0 -312.96c73.77,0 132.99,60.37 134.13,134.12l-159.33 5.38 25.2 128.74c-73.71,2.64 -134.12,-60.36 -134.12,-134.12 0,-73.76 60.36,-134.12 134.12,-134.12z"/>
   </g>
   <path class="fil0" d="M364.54 955.08l67.06 0c24.59,0 44.71,-20.13 44.71,-44.71l0 -312.96c0,-13.4 8.94,-22.35 22.35,-22.35 13.41,0 22.35,8.95 22.35,22.35l0 312.96c0,24.58 20.12,44.71 44.71,44.71l67.06 0c13.42,0 22.36,8.95 22.36,22.35 0,13.41 -8.94,22.36 -22.36,22.36l-67.06 0 -134.12 0 -67.06 0c-13.41,0 -22.36,-8.95 -22.36,-22.35 0,-13.41 8.95,-22.36 22.36,-22.36z"/>
   <g>
    <path class="fil0" d="M163.35 172.69l670.62 0c13.42,0 22.36,8.94 22.36,22.35l0 89.42c0,87.18 -69.3,156.48 -156.48,156.48l-22.36 0c0,98.36 -80.47,178.83 -178.83,178.83 -98.36,0 -178.83,-80.47 -178.83,-178.83l-22.35 0c-87.2,0 -156.49,-69.3 -156.49,-156.48l0 -89.42c0,-13.41 8.96,-22.35 22.36,-22.35l0 0zm31.3 156.48c7.32,14.76 17.27,28.02 29.06,40.23 20.11,15.65 44.71,26.83 71.54,26.83l46.93 0c13.41,0 22.36,8.94 22.36,22.35l0 22.36c0,73.76 60.36,134.12 134.12,134.12 73.77,0 134.12,-60.36 134.12,-134.12l0 -22.36c0,-13.41 8.94,-22.35 22.36,-22.35l44.71 0c62.58,0 111.77,-49.18 111.77,-111.77l0 -67.06 -449.31 0 -44.71 0 -131.9 -0.01 0 67.07c0,15.65 2.23,31.29 8.95,44.71z"/>
   </g>
  </g>
 </g>
</svg>
