<?xml version="1.0" encoding="UTF-8"?>
<!DOCTYPE svg PUBLIC "-//W3C//DTD SVG 1.1//EN" "http://www.w3.org/Graphics/SVG/1.1/DTD/svg11.dtd">
<!-- Creator: CorelDRAW 2020 (64 Bit) -->
<svg xmlns="http://www.w3.org/2000/svg" xml:space="preserve" width="10mm" height="10mm" version="1.1" style="shape-rendering:geometricPrecision; text-rendering:geometricPrecision; image-rendering:optimizeQuality; fill-rule:evenodd; clip-rule:evenodd"
viewBox="0 0 1000 1000"
 xmlns:xlink="http://www.w3.org/1999/xlink"
 xmlns:xodm="http://www.corel.com/coreldraw/odm/2003">
 <defs>
  <style type="text/css">
   <![CDATA[
    .fil0 {fill:#FEFEFE}
   ]]>
  </style>
 </defs>
 <g id="Camada_x0020_1">
  <metadata id="CorelCorpID_0Corel-Layer"/>
  <g id="_1501200651328">
   <path class="fil0" d="M450.64 26.95c-424.17,47.23 -555.19,514.27 -340.89,778.33 38.28,47.17 73.19,79.43 127.35,113.6 83.63,52.75 189.91,81.43 296.6,70.38 359.44,-37.25 539.78,-404.24 387.77,-704.47 -81.91,-161.78 -276.61,-279.46 -470.83,-257.84zm20.83 167.87c-7.62,-12.83 -11.12,-45.8 -16.84,-59.98 -3.36,-8.31 -0.95,-3.65 -4.9,-8.92 -92.67,0.34 -197.09,72.59 -234.48,111.69 -26.12,27.3 -49.63,59.72 -69.99,100.82 -15.19,30.67 -39.36,91.87 -36.41,129.27l69.63 19.57 0.81 42.4 -71.47 18.09c-2.99,106.97 99.74,255.08 207.81,303.71 34.16,15.38 90.77,43.06 135.48,39.09l20.05 -69.94 42.04 -0.65 18.19 71.08c73.19,5.03 189.26,-62.58 235.22,-110.4 40.03,-41.64 111.63,-146.59 108.21,-231.71l-70.07 -19.35 -0.74 -42.96 71.69 -17.46c0.84,-40.37 -21.95,-98.26 -37.32,-130.93 -33.71,-71.66 -95.96,-136.4 -170.38,-173.06 -30.02,-14.79 -97.24,-42.74 -135.99,-39.28 -14.48,45.73 -10.6,68.21 -27.25,70.93 -9.78,1.59 -26.85,0.3 -33.29,-2.01z"/>
   <path class="fil0" d="M235.1 732.08c6.92,10.8 19.58,23.86 30.44,32.19 6.87,-1.19 294.65,-171.02 303.41,-180.67l179.96 -298.91c-4.55,-7.67 -21.28,-25.47 -30.96,-32.18 -16.13,3.01 -59.89,33.73 -75.63,43.08 -37.18,22.07 -219.9,127.89 -228.24,137.15 -11.08,12.3 -33.98,56.45 -44.61,73.1l-134.37 226.24zm238.04 -263.05c-50.85,24.3 -19.84,99.82 34.11,81.05 54.73,-19.05 23.2,-108.45 -34.11,-81.05z"/>
   <path class="fil0" d="M219.44 444.9c12.18,6.93 45.61,14.37 61.6,14.74l10.48 -35.73c-11.02,-8.13 -44.59,-21.92 -58.89,-24.28 -5.57,14.51 -12.6,27.82 -13.19,45.27z"/>
   <path class="fil0" d="M467.48 228.5c0.35,62.92 -0.75,64.64 24.24,65.03l16.87 -2.61c10.63,-3.56 8.03,-48.69 8.18,-60.48l-49.29 -1.94z"/>
   <path class="fil0" d="M709.28 488.4l-1.1 40.44c71.55,10.17 67.17,12.29 63.02,-43.28 -13.4,-3.07 -46.89,0.84 -61.92,2.84z"/>
   <path class="fil0" d="M466.67 786.4l49.25 1.78c0.49,-70.59 -2.71,-64.28 -24.18,-64.49 -21.93,-0.21 -23.62,-6.92 -25.07,62.71z"/>
   <path class="fil0" d="M252.28 367.36l51.47 29.3c9.28,-7.47 21.12,-22.89 23.62,-34.46 -27.45,-16.57 -29.87,-31.92 -50.3,-36.01 -7,13.1 -21.63,22.88 -24.79,41.17z"/>
   <path class="fil0" d="M656.22 654.52l44.83 36.79c12.1,-6.67 25,-26.8 29.78,-37.82 -6.38,-8.84 -39.38,-28.5 -51.66,-32.92 -8.75,7.32 -20.31,22.61 -22.95,33.95z"/>
   <path class="fil0" d="M691.36 595.58c14.22,5.82 46.44,20.8 58.9,21.17 7.05,-11.7 13.2,-31.13 12.67,-44.88 -9.7,-4.64 -49.29,-14.2 -59.66,-13.58l-11.91 37.29z"/>
   <path class="fil0" d="M539.75 296.7l38.49 11.85c6.11,-11.34 21.43,-45.17 22.5,-57.11 -10.82,-7.02 -33.11,-14.3 -46.67,-14.39l-14.32 59.65z"/>
   <path class="fil0" d="M382.83 765.34c10.67,7.05 32.23,14.34 46.18,13.98l14.83 -59.66 -38.53 -11.8c-6.99,14.25 -20.16,42.34 -22.48,57.48z"/>
   <path class="fil0" d="M604.9 692.47c2.28,15.06 21.36,41.61 28.74,54.61 13.59,-2.62 33.92,-19.24 40.29,-27.09 -3.79,-11.44 -30.9,-41.41 -40,-46.93l-29.03 19.41z"/>
   <path class="fil0" d="M309.53 296.78c3.29,11.56 10.63,16.77 17.41,24.2 7.89,8.65 9.43,12.33 19.38,21.59 12.88,-2.38 26.78,-13.7 32.6,-21.61l-29.06 -51.43c-14.46,2.45 -34.23,19.08 -40.33,27.25z"/>
   <path class="fil0" d="M211.67 531.38c14.05,2.84 49.14,-0.04 60.78,-3.99 3.99,-8.26 3.63,-27.16 1.73,-39.04l-62.49 -5.08 -0.02 48.11z"/>
   <path class="fil0" d="M219.74 571.87c0.7,15.59 7.82,32.49 12.96,45.08l57.83 -21.6 -10.95 -38.14c-17.55,0.5 -47.76,6.98 -59.84,14.66z"/>
   <path class="fil0" d="M383.15 251.44c1.47,12.19 15.97,44.36 22.55,56.25l37.42 -10.34 -12.96 -60.64c-13.65,0.61 -37.35,8.15 -47.01,14.73z"/>
   <path class="fil0" d="M539.92 719.41l13.27 61.1c16.53,-0.65 35.51,-7.35 46.64,-15.17l-21.19 -56.73 -38.72 10.8z"/>
   <path class="fil0" d="M692.12 422.42l11.15 36.44c14.09,1.44 49.73,-7.59 60.77,-13.96l-13.05 -44.9 -58.87 22.42z"/>
  </g>
 </g>
</svg>
