<?xml version="1.0" encoding="UTF-8"?>
<!DOCTYPE svg PUBLIC "-//W3C//DTD SVG 1.1//EN" "http://www.w3.org/Graphics/SVG/1.1/DTD/svg11.dtd">
<!-- Creator: CorelDRAW 2020 (64 Bit) -->
<svg xmlns="http://www.w3.org/2000/svg" xml:space="preserve" width="10mm" height="10mm" version="1.1" style="shape-rendering:geometricPrecision; text-rendering:geometricPrecision; image-rendering:optimizeQuality; fill-rule:evenodd; clip-rule:evenodd"
viewBox="0 0 1000 1000"
 xmlns:xlink="http://www.w3.org/1999/xlink"
 xmlns:xodm="http://www.corel.com/coreldraw/odm/2003">
 <defs>
  <style type="text/css">
   <![CDATA[
    .fil0 {fill:#FEFEFE}
   ]]>
  </style>
 </defs>
 <g id="Camada_x0020_1">
  <metadata id="CorelCorpID_0Corel-Layer"/>
  <path class="fil0" d="M492.2 421.88l-65.74 -60.16c37.67,-113.11 -4.04,-203.74 -84.58,-246.45 -68.45,-36.29 -208.42,-106.22 -280.75,-33.47 -73.98,74.42 1.11,313.97 131.66,368.57 66.8,27.93 94.24,7.76 157.59,-4.68 18.53,29.89 35.17,33.59 49.01,71.09l-166.44 148.35c-113.55,119.7 -271.95,213.31 -215.82,299.13 11.49,17.56 39.45,33.52 70.4,30.52 33.06,-3.2 47.41,-23.26 63.18,-41.1l298.27 -315.22 -2.74 -24.37c-30.37,-0.92 -75.69,62.11 -97.34,86.21l-195.35 208.07c-15.47,16.95 -85.16,102.74 -115.16,26.53 -22.81,-57.94 105.67,-125.31 176.34,-207.5l202.94 -197.02c37.06,23.16 187.89,197.64 232.72,236.4 36.26,31.35 77.49,83.33 112.51,121.6 23.94,26.16 82.3,106.76 140.77,103.53 71.8,-3.96 92.83,-85.04 41.65,-132.85 -41.3,-38.56 -77.89,-77.4 -118.63,-115.18 -21.98,-20.39 -37.61,-33.63 -59.96,-53.29 -47.22,-41.55 -111.46,-126.14 -188.45,-174.58 13.88,-32.06 41.69,-55.84 63.36,-79.72 58.41,-64.38 63.73,-40.6 58.42,-82.16 -38.25,-1.89 -52.67,36.09 -73.71,59.2 -23.59,25.91 -45.27,40.8 -69.26,68.35 -22.49,-12.45 -30.64,-19.88 -43.34,-44.59 27.55,-17.74 48.39,-39.59 74.08,-62.52 23.85,-21.29 59.87,-36.85 55.76,-76.9 -34.79,-1.88 -22.45,4.07 -48.17,20.55 -9.88,-78.93 41.11,-109.7 76.84,-141.5 21.82,-19.41 37.08,-34.41 58.94,-54.23 13.13,-11.91 15.48,-14.72 27.65,-28.15 26.41,-29.15 -0.46,-12.99 36.06,-27.77 -65.46,96.82 -184.23,163.87 -120.47,200.28 48.75,27.83 127.96,-112.76 206.89,-148.88 -29.16,68.78 -192.14,165.14 -142.52,213.65 43.51,42.54 144.01,-102.13 209.37,-144.95 -6.93,23.28 -159.6,180.8 -186.59,200.17 -34.01,24.39 -21.04,-3.12 -34.64,29.59 32.56,24.63 62.36,-11.52 81.08,-31.38l127.02 -131.04c8.61,-9.34 24.71,-25.63 31.16,-34.61 35.45,-49.32 -12.19,-90.3 -58.56,-41.4 -19.15,20.19 -28.75,27.3 -50.85,46.16 -29.07,24.8 -66.11,72.26 -96.14,85.5 49.14,-88.13 208.7,-176.59 130.05,-219.33 -30.17,-16.4 -80.3,37.4 -104.83,63.02 -26.09,27.24 -68.48,73.97 -98.06,84.52 16.74,-28.67 91.21,-100.1 132.08,-147.96 45.94,-53.79 3.9,-76.13 -24.98,-67.11 -18.15,5.66 -199.37,175.7 -217.39,212.26 -17.24,34.99 -2.25,95.13 -14.6,116.19l-70.73 70.63zm-174.87 2.59c-13.96,-21.77 -47.48,-38.73 -35.46,-66.41 30.6,-10.1 58.15,40.18 77.79,62.39 79.45,89.83 225.44,226.9 315.58,329.7 28.79,32.83 48.21,48.4 80.38,80.63 26.55,26.6 53.99,55.02 78.46,82.99 16.95,19.38 53.64,75.28 94.24,35.27 48.96,-48.24 -48.94,-110.96 -113.14,-169.75l-410.7 -395.68c-23,-26.09 -70.77,-47.5 -71.48,-86.4 44.43,-4.58 26.48,18.88 70.33,38.62 28.41,-107.07 -18.89,-161.71 -84.49,-197.56 -48.82,-26.68 -177.41,-90.08 -234.05,-32.79 -52.73,53.33 1.35,363.54 232.54,318.99z"/>
 </g>
</svg>
