<?xml version="1.0" encoding="UTF-8"?>
<!DOCTYPE svg PUBLIC "-//W3C//DTD SVG 1.1//EN" "http://www.w3.org/Graphics/SVG/1.1/DTD/svg11.dtd">
<!-- Creator: CorelDRAW 2020 (64 Bit) -->
<svg xmlns="http://www.w3.org/2000/svg" xml:space="preserve" width="10mm" height="10mm" version="1.1" style="shape-rendering:geometricPrecision; text-rendering:geometricPrecision; image-rendering:optimizeQuality; fill-rule:evenodd; clip-rule:evenodd"
viewBox="0 0 1000 1000"
 xmlns:xlink="http://www.w3.org/1999/xlink"
 xmlns:xodm="http://www.corel.com/coreldraw/odm/2003">
 <defs>
  <style type="text/css">
   <![CDATA[
    .fil0 {fill:#FEFEFE}
   ]]>
  </style>
 </defs>
 <g id="Camada_x0020_1">
  <metadata id="CorelCorpID_0Corel-Layer"/>
  <path class="fil0" d="M499.47 527.49c3.87,0 7.73,0.06 11.58,0.15 111.24,-6.01 199.6,-98.11 199.6,-210.86 0,-116.63 -94.55,-211.17 -211.18,-211.17 -116.63,0 -211.18,94.54 -211.18,211.17 0,112.75 88.36,204.85 199.6,210.86 3.85,-0.09 7.71,-0.15 11.58,-0.15zm158.26 28.29c173.35,64.3 296.9,231.15 296.9,426.87 0,0.49 -0.02,0.97 -0.02,1.46l-74.53 0c0,-0.49 0.02,-0.97 0.02,-1.46 0,-203.04 -158.98,-368.94 -359.26,-380.02 -7.06,0.52 -14.18,0.79 -21.37,0.79 -7.19,0 -14.31,-0.27 -21.37,-0.79 -200.28,11.08 -359.26,176.98 -359.26,380.02 0,0.49 0.02,0.97 0.02,1.46l-74.53 0c0,-0.49 -0.02,-0.97 -0.02,-1.46 0,-195.72 123.55,-362.57 296.9,-426.87 -77.36,-51.33 -128.38,-139.2 -128.38,-239 0,-158.3 128.33,-286.63 286.64,-286.63 158.31,0 286.64,128.33 286.64,286.63 0,99.8 -51.02,187.67 -128.38,239z"/>
 </g>
</svg>
