<?xml version="1.0" encoding="UTF-8"?>
<!DOCTYPE svg PUBLIC "-//W3C//DTD SVG 1.1//EN" "http://www.w3.org/Graphics/SVG/1.1/DTD/svg11.dtd">
<!-- Creator: CorelDRAW 2020 (64 Bit) -->
<svg xmlns="http://www.w3.org/2000/svg" xml:space="preserve" width="10mm" height="10mm" version="1.1" style="shape-rendering:geometricPrecision; text-rendering:geometricPrecision; image-rendering:optimizeQuality; fill-rule:evenodd; clip-rule:evenodd"
viewBox="0 0 1000 1000"
 xmlns:xlink="http://www.w3.org/1999/xlink"
 xmlns:xodm="http://www.corel.com/coreldraw/odm/2003">
 <defs>
  <style type="text/css">
   <![CDATA[
    .fil0 {fill:#FEFEFE}
   ]]>
  </style>
 </defs>
 <g id="Camada_x0020_1">
  <metadata id="CorelCorpID_0Corel-Layer"/>
  <path class="fil0" d="M607.6 569.69l363.93 362.83c-8.16,15.12 -38.65,45.79 -54.87,54.87l-362.11 -364.59c-22.92,7.95 -183.46,137.71 -368.2,30.68 -194.15,-112.47 -234.55,-364.65 -76.18,-528.53 109.79,-113.6 327.34,-137.26 455.24,-13.78 48.5,46.83 100.69,108.6 111.1,205.56 16.35,152.24 -48.86,202.16 -68.91,252.96zm-223.27 -464.71c347.15,62.79 254.44,562.2 -77.41,512.14 -127.99,-19.31 -243.63,-142 -217.26,-297.05 21.78,-127.94 142.13,-242.68 294.67,-215.09z"/>
 </g>
</svg>
